<svg width="32" height="32" viewBox="0 0 32 32" fill="none" xmlns="http://www.w3.org/2000/svg">
  <defs>
    <linearGradient id="bloomGradient" x1="0%" y1="0%" x2="100%" y2="100%">
      <stop offset="0%" style="stop-color:#00ff88"/>
      <stop offset="50%" style="stop-color:#00d4ff"/>
      <stop offset="100%" style="stop-color:#ff00ff"/>
    </linearGradient>
  </defs>
  
  <!-- Background circle -->
  <circle cx="16" cy="16" r="14" fill="url(#bloomGradient)" opacity="0.1"/>
  <circle cx="16" cy="16" r="14" fill="none" stroke="url(#bloomGradient)" stroke-width="2"/>
  
  <!-- Bloom symbol - stylized flower/plant -->
  <path d="M16 8 C18 6, 22 8, 20 12 C22 10, 26 12, 24 16 C26 14, 24 18, 20 20 C22 22, 18 26, 16 24 C14 26, 10 22, 12 20 C8 22, 6 18, 8 16 C6 14, 8 10, 12 12 C10 8, 14 6, 16 8 Z" fill="url(#bloomGradient)" opacity="0.8"/>
  
  <!-- Center dot -->
  <circle cx="16" cy="16" r="2" fill="url(#bloomGradient)"/>
</svg>