<svg width="400" height="200" viewBox="0 0 400 200" fill="none" xmlns="http://www.w3.org/2000/svg">
  <!-- Background - Greenhouse interior -->
  <defs>
    <linearGradient id="greenhouseBg" x1="0%" y1="0%" x2="100%" y2="100%">
      <stop offset="0%" style="stop-color:#2D5016"/>
      <stop offset="50%" style="stop-color:#1F3B0B"/>
      <stop offset="100%" style="stop-color:#0F1E05"/>
    </linearGradient>
  </defs>
  
  <rect width="400" height="200" fill="url(#greenhouseBg)"/>
  
  <!-- Greenhouse structure -->
  <rect x="80" y="80" width="240" height="100" fill="rgba(255,255,255,0.05)" stroke="#7FB069" stroke-width="2"/>
  <polygon points="80,80 200,40 320,80" fill="rgba(255,255,255,0.02)" stroke="#7FB069" stroke-width="2"/>
  
  <!-- Greenhouse panels -->
  <line x1="140" y1="50" x2="140" y2="180" stroke="#7FB069" stroke-width="1" opacity="0.3"/>
  <line x1="200" y1="40" x2="200" y2="180" stroke="#7FB069" stroke-width="1" opacity="0.3"/>
  <line x1="260" y1="50" x2="260" y2="180" stroke="#7FB069" stroke-width="1" opacity="0.3"/>
  <line x1="100" y1="130" x2="300" y2="130" stroke="#7FB069" stroke-width="1" opacity="0.3"/>
  
  <!-- Growing tables/beds -->
  <rect x="100" y="140" width="80" height="25" fill="#8B4513"/>
  <rect x="220" y="140" width="80" height="25" fill="#8B4513"/>
  
  <!-- Plants at different growth stages -->
  <rect x="110" y="125" width="4" height="15" fill="#4A7C59"/>
  <circle cx="112" cy="120" r="6" fill="#7FB069"/>
  <circle cx="112" cy="115" r="3" fill="#9ACD32"/>
  
  <rect x="130" y="120" width="4" height="20" fill="#4A7C59"/>
  <ellipse cx="132" cy="110" rx="8" ry="5" fill="#7FB069"/>
  <ellipse cx="132" cy="105" rx="5" ry="3" fill="#9ACD32"/>
  
  <rect x="150" y="130" width="4" height="10" fill="#4A7C59"/>
  <circle cx="152" cy="125" r="4" fill="#7FB069"/>
  
  <rect x="230" y="115" width="4" height="25" fill="#4A7C59"/>
  <ellipse cx="232" cy="105" rx="10" ry="6" fill="#7FB069"/>
  <ellipse cx="232" cy="100" rx="6" ry="4" fill="#9ACD32"/>
  
  <rect x="250" y="125" width="4" height="15" fill="#4A7C59"/>
  <circle cx="252" cy="120" r="5" fill="#7FB069"/>
  
  <rect x="270" y="120" width="4" height="20" fill="#4A7C59"/>
  <ellipse cx="272" cy="110" rx="7" ry="5" fill="#7FB069"/>
  <ellipse cx="272" cy="105" rx="4" ry="3" fill="#9ACD32"/>
  
  <!-- Person tending plants -->
  <circle cx="180" cy="95" r="10" fill="#4A4A4A"/>
  <rect x="175" y="105" width="10" height="20" fill="#4A4A4A"/>
  <rect x="170" y="115" width="8" height="15" fill="#4A4A4A" transform="rotate(-10 174 122)"/>
  <rect x="182" y="115" width="8" height="15" fill="#4A4A4A" transform="rotate(10 186 122)"/>
  
  <!-- Watering can -->
  <ellipse cx="160" cy="135" rx="8" ry="5" fill="#8B4513"/>
  <rect x="165" y="130" width="12" height="2" fill="#8B4513"/>
  <circle cx="177" cy="131" r="1" fill="#8B4513"/>
  
  <!-- Seeds and soil -->
  <rect x="60" y="165" width="280" height="20" fill="#8B4513"/>
  <circle cx="90" cy="170" r="1.5" fill="#D2691E"/>
  <circle cx="160" cy="172" r="1" fill="#D2691E"/>
  <circle cx="240" cy="171" r="1.5" fill="#D2691E"/>
  <circle cx="310" cy="169" r="1" fill="#D2691E"/>
  
  <!-- Workshop setup -->
  <rect x="330" y="120" width="50" height="40" fill="#8B4513"/>
  <rect x="335" y="125" width="15" height="10" fill="#D2691E"/>
  <rect x="355" y="128" width="10" height="8" fill="#7FB069"/>
  <rect x="340" y="140" width="20" height="5" fill="#4A7C59"/>
  
  <!-- Live stream camera -->
  <rect x="50" y="100" width="15" height="10" fill="#2C3E50"/>
  <circle cx="57" cy="105" r="3" fill="#000"/>
  <circle cx="57" cy="105" r="1.5" fill="#FF0000"/>
  
  <!-- Live indicator -->
  <rect x="300" y="50" width="80" height="25" fill="rgba(255,0,0,0.8)" rx="5"/>
  <text x="310" y="60" font-family="Arial" font-size="10" fill="white" font-weight="bold">LIVE</text>
  <text x="305" y="70" font-family="Arial" font-size="8" fill="white">Garden Workshop</text>
  
  <!-- Viewer count -->
  <circle cx="100" cy="180" r="3" fill="#FF0000"/>
  <text x="108" y="185" font-family="Arial" font-size="8" fill="#E5E5E5">890 viewers</text>
  
  <!-- Text overlay -->
  <rect x="0" y="0" width="400" height="50" fill="rgba(0,0,0,0.7)"/>
  <text x="20" y="25" font-family="Arial" font-size="16" font-weight="bold" fill="#7FB069">
    The Greenhouse Collective
  </text>
  <text x="20" y="40" font-family="Arial" font-size="12" fill="#E5E5E5">
    Urban Gardening Workshop - Live Stream
  </text>
</svg>