<svg width="400" height="200" viewBox="0 0 400 200" fill="none" xmlns="http://www.w3.org/2000/svg">
  <!-- Background - Art studio -->
  <defs>
    <linearGradient id="studioGradient" x1="0%" y1="0%" x2="100%" y2="100%">
      <stop offset="0%" style="stop-color:#2C1810"/>
      <stop offset="50%" style="stop-color:#1F1208"/>
      <stop offset="100%" style="stop-color:#0F0804"/>
    </linearGradient>
  </defs>
  
  <rect width="400" height="200" fill="url(#studioGradient)"/>
  
  <!-- Easel with canvas -->
  <rect x="150" y="60" width="100" height="80" fill="#8B4513"/>
  <rect x="155" y="65" width="90" height="70" fill="#F5F5DC"/>
  
  <!-- Painting on canvas -->
  <rect x="165" y="75" width="20" height="15" fill="#FF6B9D"/>
  <rect x="185" y="75" width="15" height="20" fill="#4ECDC4"/>
  <rect x="200" y="80" width="25" height="12" fill="#FFD93D"/>
  <rect x="170" y="95" width="18" height="18" fill="#8A2BE2"/>
  <rect x="195" y="100" width="22" height="10" fill="#FF6347"/>
  <rect x="175" y="115" width="30" height="8" fill="#32CD32"/>
  
  <!-- Easel legs -->
  <rect x="195" y="140" width="4" height="40" fill="#8B4513"/>
  <rect x="180" y="145" width="3" height="35" fill="#8B4513" transform="rotate(-15 181 162)"/>
  <rect x="215" y="145" width="3" height="35" fill="#8B4513" transform="rotate(15 216 162)"/>
  
  <!-- Paint palette -->
  <ellipse cx="300" cy="120" rx="40" ry="25" fill="#F5F5DC"/>
  <circle cx="285" cy="110" r="6" fill="#FF6B9D"/>
  <circle cx="300" cy="105" r="6" fill="#4ECDC4"/>
  <circle cx="315" cy="110" r="6" fill="#FFD93D"/>
  <circle cx="290" cy="125" r="6" fill="#8A2BE2"/>
  <circle cx="310" cy="125" r="6" fill="#FF6347"/>
  <circle cx="300" cy="135" r="6" fill="#32CD32"/>
  
  <!-- Paint brushes -->
  <rect x="280" y="140" width="2" height="30" fill="#8B4513"/>
  <rect x="285" y="142" width="2" height="28" fill="#8B4513"/>
  <rect x="290" y="138" width="2" height="32" fill="#8B4513"/>
  <ellipse cx="281" cy="135" rx="3" ry="2" fill="#2C3E50"/>
  <ellipse cx="286" cy="137" rx="3" ry="2" fill="#2C3E50"/>
  <ellipse cx="291" cy="133" rx="3" ry="2" fill="#2C3E50"/>
  
  <!-- Artist silhouette -->
  <circle cx="120" cy="85" r="15" fill="#4A4A4A"/>
  <rect x="110" y="100" width="20" height="30" fill="#4A4A4A"/>
  <rect x="105" y="115" width="12" height="25" fill="#4A4A4A" transform="rotate(-10 111 127)"/>
  <rect x="123" y="115" width="12" height="25" fill="#4A4A4A" transform="rotate(10 129 127)"/>
  
  <!-- Art supplies on table -->
  <rect x="50" y="140" width="80" height="40" fill="#8B4513"/>
  <rect x="55" y="145" width="10" height="15" fill="#FF6B9D"/>
  <rect x="70" y="148" width="8" height="12" fill="#4ECDC4"/>
  <rect x="85" y="146" width="12" height="14" fill="#FFD93D"/>
  <rect x="100" y="150" width="15" height="10" fill="#8A2BE2"/>
  
  <!-- Window with natural light -->
  <rect x="0" y="30" width="40" height="100" fill="#87CEEB" opacity="0.3"/>
  <rect x="5" y="35" width="30" height="90" fill="#E0F6FF" opacity="0.4"/>
  <rect x="15" y="30" width="2" height="100" fill="#8B4513"/>
  <rect x="0" y="75" width="40" height="2" fill="#8B4513"/>
  
  <!-- Finished artworks on wall -->
  <rect x="320" y="40" width="30" height="25" fill="#F5F5DC"/>
  <rect x="322" y="42" width="26" height="21" fill="#FF6B9D"/>
  
  <rect x="355" y="35" width="25" height="30" fill="#F5F5DC"/>
  <rect x="357" y="37" width="21" height="26" fill="#4ECDC4"/>
  
  <!-- Live stream setup -->
  <rect x="350" y="120" width="40" height="20" fill="#2C3E50"/>
  <rect x="355" y="125" width="30" height="10" fill="#000"/>
  <circle cx="370" cy="130" r="2" fill="#FF0000"/>
  
  <!-- Live indicator -->
  <rect x="300" y="160" width="80" height="25" fill="rgba(255,0,0,0.8)" rx="5"/>
  <text x="310" y="170" font-family="Arial" font-size="10" fill="white" font-weight="bold">LIVE</text>
  <text x="305" y="180" font-family="Arial" font-size="8" fill="white">Art Tutorial</text>
  
  <!-- Viewer count -->
  <circle cx="80" cy="180" r="3" fill="#FF0000"/>
  <text x="88" y="185" font-family="Arial" font-size="8" fill="#E5E5E5">1,240 viewers</text>
  
  <!-- Text overlay -->
  <rect x="0" y="0" width="400" height="50" fill="rgba(0,0,0,0.7)"/>
  <text x="20" y="25" font-family="Arial" font-size="16" font-weight="bold" fill="#FF6B9D">
    Maya's Art Studio
  </text>
  <text x="20" y="40" font-family="Arial" font-size="12" fill="#E5E5E5">
    Digital Art Tutorial - Live Stream
  </text>
</svg>